<svg xmlns="http://www.w3.org/2000/svg" xmlns:xlink="http://www.w3.org/1999/xlink" width="1000px" height="1500px" viewBox="0 0 1000 1500" preserveAspectRatio="xMidYMid meet" >
<rect id="svgEditorBackground" x="0" y="0" width="1000" height="1500" style="fill:dodgerblue; stroke: none;"/>

<!--head-->
<rect x="380" y="10" style="fill:white;stroke:black;stroke-width:4px;" id="e1_rectangle" width="240" height="260" rx="0" ry="0"/>

<!--neck-->
<rect x="450" y="275" style="fill:white;stroke:black;stroke-width:4px;" id="e2_rectangle" width="100" height="90" rx="0" ry="0"/>

<!--body1-->
<rect x="290" y="370" style="fill:white;stroke:black;stroke-width:4px;" id="e3_rectangle" width="420" height="360" rx="0" ry="0"/>

<!--left arm-->
<rect x="10" y="520" style="fill:white;stroke:black;stroke-width:4px;" id="e7_rectangle" width="275" height="100" rx="0" ry="0"/>
<!--left arm hand-->
<rect x="10" y="355" style="fill:white;stroke:black;stroke-width:4px;" id="e9_rectangle" width="100" height="160" rx="0" ry="0"/>

<!--body2-->
<rect x="290" y="735" style="fill:white;stroke:black;stroke-width:4px;" id="e4_rectangle" width="420" height="360" rx="0" ry="0"/>

<!--left leg-->
<rect x="330" y="1100" style="fill:white;stroke:black;stroke-width:4px;" id="e5_rectangle" width="100" height="380" rx="0" ry="0"/>

<!--right leg-->
<rect x="570" y="1100" style="fill:white;stroke:black;stroke-width:4px;" id="e6_rectangle" width="100" height="380" rx="0" ry="0"/>

<!--right arm-->
<rect x="715" y="520" style="fill:white;stroke:black;stroke-width:4px;" id="e8_rectangle" width="275" height="100" rx="0" ry="0"/>

<!--right arm hand-->
<rect x="890" y="625" style="fill:white;stroke:black;stroke-width:4px;" id="e10_rectangle" width="100" height="160" rx="0" ry="0"/>

</svg>